<svg width="1304" height="152" viewBox="0 0 1304 152" fill="none" xmlns="http://www.w3.org/2000/svg">
<path d="M23.4 98.8C30.6 103.467 37.7333 107.133 44.8 109.8C51.8667 112.467 58.4667 113.8 64.6 113.8C70.4667 113.8 74.9333 113 78 111.4C81.0667 109.667 82.6 107.133 82.6 103.8C82.6 102.067 81.9333 100.733 80.6 99.8C79.2667 98.7333 77.4667 97.8667 75.2 97.2C73.0667 96.5333 70.5333 96 67.6 95.6C64.6667 95.2 61.6667 94.6667 58.6 94C55.6667 93.4667 52.2 92.8667 48.2 92.2C44.3333 91.4 40.3333 90.3333 36.2 89C32.0667 87.5333 27.9333 85.7333 23.8 83.6C19.8 81.4667 16.2 78.7333 13 75.4C9.8 72.0667 7.2 68.1333 5.2 63.6C3.33333 58.9333 2.4 53.4667 2.4 47.2C2.4 38 4.2 30.4 7.8 24.4C11.4 18.4 15.9333 13.6667 21.4 10.2C27 6.6 33.2 4.13333 40 2.8C46.8 1.33333 53.4 0.599991 59.8 0.599991C71 0.599991 81 2.26666 89.8 5.6C98.7333 8.8 107.267 13.5333 115.4 19.8C116.467 20.7333 117.067 21.8667 117.2 23.2C117.333 24.5333 117 25.7333 116.2 26.8L100.6 49C99.8 50.0667 98.7333 50.7333 97.4 51C96.0667 51.2667 94.8667 51 93.8 50.2C87 45.9333 80.6667 42.9333 74.8 41.2C68.9333 39.3333 63.5333 38.4 58.6 38.4C57.1333 38.4 55.4 38.4667 53.4 38.6C51.5333 38.6 49.7333 38.8667 48 39.4C46.2667 39.8 44.8 40.5333 43.6 41.6C42.5333 42.6667 42 44.1333 42 46C42 47.8667 43.4 49.5333 46.2 51C49 52.4667 52.2 53.7333 55.8 54.8C59.4 55.8667 62.8667 56.7333 66.2 57.4C69.5333 57.9333 71.6667 58.2667 72.6 58.4C77.4 59.3333 82.6667 60.7333 88.4 62.6C94.1333 64.3333 99.4667 67 104.4 70.6C109.467 74.0667 113.667 78.6667 117 84.4C120.467 90 122.2 97.0667 122.2 105.6C122.2 113.6 120.8 120.533 118 126.4C115.2 132.133 111.267 136.867 106.2 140.6C101.267 144.333 95.2667 147.133 88.2 149C81.2667 150.733 73.5333 151.6 65 151.6C58.0667 151.6 51.6 151 45.6 149.8C39.6 148.733 34 147.2 28.8 145.2C23.6 143.2 18.7333 140.867 14.2 138.2C9.8 135.4 5.73333 132.467 2 129.4C0.933334 128.6 0.333334 127.533 0.2 126.2C0.066667 124.733 0.4 123.467 1.2 122.4L16.6 100.2C17.4 99.1333 18.4667 98.4667 19.8 98.2C21.1333 97.9333 22.3333 98.1333 23.4 98.8ZM182.138 44.2V52.6C182.138 53.9333 182.604 55.0667 183.538 56C184.471 56.9333 185.604 57.4 186.938 57.4H241.138C242.471 57.4 243.604 57.8667 244.538 58.8C245.471 59.7333 245.938 60.8667 245.938 62.2V89.8C245.938 91.1333 245.471 92.2667 244.538 93.2C243.604 94.1333 242.471 94.6 241.138 94.6H186.938C185.604 94.6 184.471 95.0667 183.538 96C182.604 96.9333 182.138 98.0667 182.138 99.4V107C182.138 108.333 182.604 109.467 183.538 110.4C184.471 111.333 185.604 111.8 186.938 111.8H249.138C250.471 111.8 251.604 112.267 252.538 113.2C253.471 114.133 253.938 115.267 253.938 116.6V144.2C253.938 145.533 253.471 146.667 252.538 147.6C251.604 148.533 250.471 149 249.138 149H147.338C146.004 149 144.871 148.533 143.938 147.6C143.004 146.667 142.538 145.533 142.538 144.2V7.4C142.538 6.06666 143.004 4.93332 143.938 4C144.871 3.06666 146.004 2.59999 147.338 2.59999H249.138C250.471 2.59999 251.604 3.06666 252.538 4C253.471 4.93332 253.938 6.06666 253.938 7.4V34.6C253.938 35.9333 253.471 37.0667 252.538 38C251.604 38.9333 250.471 39.4 249.138 39.4H186.938C185.604 39.4 184.471 39.8667 183.538 40.8C182.604 41.7333 182.138 42.8667 182.138 44.2ZM321.484 7.19999C322.018 5.99999 322.884 4.99999 324.084 4.19999C325.418 3.26666 326.818 2.8 328.284 2.8H356.284C357.618 2.8 358.884 3.26666 360.084 4.19999C361.418 4.99999 362.351 5.99999 362.884 7.19999L421.284 143.2C421.818 144.4 421.684 145.667 420.884 147C420.218 148.333 418.818 149 416.684 149H382.484C381.018 149 379.618 148.6 378.284 147.8C377.084 146.867 376.151 145.8 375.484 144.6L370.084 132.6C369.418 131.4 368.418 130.4 367.084 129.6C365.884 128.667 364.618 128.2 363.284 128.2H321.084C319.618 128.2 318.218 128.667 316.884 129.6C315.684 130.4 314.818 131.4 314.284 132.6L308.684 144.6C308.151 145.8 307.218 146.867 305.884 147.8C304.684 148.6 303.418 149 302.084 149H267.684C267.018 149 266.351 148.867 265.684 148.6C264.884 148.333 264.284 147.933 263.884 147.4C263.351 146.867 263.018 146.2 262.884 145.4C262.751 144.6 262.951 143.667 263.484 142.6L321.484 7.19999ZM333.284 94.2H351.084C352.418 94.2 353.351 93.8 353.884 93C354.551 92.0667 354.551 91 353.884 89.8C352.551 86.4667 350.951 82.6 349.084 78.2C347.218 73.6667 345.484 69.4667 343.884 65.6C343.351 64.4 342.751 63.8 342.084 63.8C341.418 63.8 340.818 64.4 340.284 65.6L330.284 89.8C329.751 91 329.751 92.0667 330.284 93C330.818 93.8 331.818 94.2 333.284 94.2ZM497.275 75.8C497.275 65.4 499.275 55.6 503.275 46.4C507.275 37.2 512.675 29.2 519.475 22.4C526.275 15.4667 534.275 9.99999 543.475 5.99999C552.675 1.99999 562.475 -1.28746e-05 572.875 -1.28746e-05C583.275 -1.28746e-05 593.075 1.99999 602.275 5.99999C611.475 9.99999 619.475 15.4667 626.275 22.4C633.208 29.2 638.675 37.2 642.675 46.4C646.675 55.6 648.675 65.4 648.675 75.8C648.675 86.2 646.675 96 642.675 105.2C638.675 114.4 633.208 122.467 626.275 129.4C619.475 136.2 611.475 141.6 602.275 145.6C593.075 149.6 583.275 151.6 572.875 151.6C562.475 151.6 552.675 149.6 543.475 145.6C534.275 141.6 526.275 136.2 519.475 129.4C512.675 122.467 507.275 114.4 503.275 105.2C499.275 96 497.275 86.2 497.275 75.8ZM536.875 75.8C536.875 80.8667 537.808 85.6667 539.675 90.2C541.542 94.7333 544.075 98.7333 547.275 102.2C550.608 105.667 554.475 108.467 558.875 110.6C563.275 112.6 567.942 113.6 572.875 113.6C577.808 113.6 582.475 112.6 586.875 110.6C591.275 108.467 595.142 105.667 598.475 102.2C601.808 98.7333 604.408 94.7333 606.275 90.2C608.142 85.6667 609.075 80.8667 609.075 75.8C609.075 70.8667 608.142 66.1333 606.275 61.6C604.408 56.9333 601.808 52.9333 598.475 49.6C595.142 46.1333 591.275 43.4 586.875 41.4C582.475 39.2667 577.808 38.2 572.875 38.2C567.942 38.2 563.275 39.2667 558.875 41.4C554.475 43.4 550.608 46.1333 547.275 49.6C544.075 52.9333 541.542 56.9333 539.675 61.6C537.808 66.1333 536.875 70.8667 536.875 75.8ZM762.953 39.4H734.953C733.62 39.4 732.486 39.8667 731.553 40.8C730.62 41.7333 730.153 42.8667 730.153 44.2V144.2C730.153 145.533 729.686 146.667 728.753 147.6C727.953 148.533 726.82 149 725.353 149H695.353C694.02 149 692.886 148.533 691.953 147.6C691.02 146.667 690.553 145.533 690.553 144.2V44.2C690.553 42.8667 690.086 41.7333 689.153 40.8C688.353 39.8667 687.22 39.4 685.753 39.4H657.353C656.02 39.4 654.886 38.9333 653.953 38C653.02 37.0667 652.553 35.9333 652.553 34.6V7.4C652.553 6.06666 653.02 4.93332 653.953 4C654.886 3.06666 656.02 2.59999 657.353 2.59999H762.953C764.42 2.59999 765.553 3.06666 766.353 4C767.286 4.93332 767.753 6.06666 767.753 7.4V34.6C767.753 35.9333 767.286 37.0667 766.353 38C765.553 38.9333 764.42 39.4 762.953 39.4ZM887.367 39.4H859.367C858.034 39.4 856.901 39.8667 855.967 40.8C855.034 41.7333 854.567 42.8667 854.567 44.2V144.2C854.567 145.533 854.101 146.667 853.167 147.6C852.367 148.533 851.234 149 849.767 149H819.767C818.434 149 817.301 148.533 816.367 147.6C815.434 146.667 814.967 145.533 814.967 144.2V44.2C814.967 42.8667 814.501 41.7333 813.567 40.8C812.767 39.8667 811.634 39.4 810.167 39.4H781.767C780.434 39.4 779.301 38.9333 778.367 38C777.434 37.0667 776.967 35.9333 776.967 34.6V7.4C776.967 6.06666 777.434 4.93332 778.367 4C779.301 3.06666 780.434 2.59999 781.767 2.59999H887.367C888.834 2.59999 889.967 3.06666 890.767 4C891.701 4.93332 892.167 6.06666 892.167 7.4V34.6C892.167 35.9333 891.701 37.0667 890.767 38C889.967 38.9333 888.834 39.4 887.367 39.4ZM946.981 44.2V52.6C946.981 53.9333 947.448 55.0667 948.381 56C949.315 56.9333 950.448 57.4 951.781 57.4H1005.98C1007.31 57.4 1008.45 57.8667 1009.38 58.8C1010.31 59.7333 1010.78 60.8667 1010.78 62.2V89.8C1010.78 91.1333 1010.31 92.2667 1009.38 93.2C1008.45 94.1333 1007.31 94.6 1005.98 94.6H951.781C950.448 94.6 949.315 95.0667 948.381 96C947.448 96.9333 946.981 98.0667 946.981 99.4V107C946.981 108.333 947.448 109.467 948.381 110.4C949.315 111.333 950.448 111.8 951.781 111.8H1013.98C1015.31 111.8 1016.45 112.267 1017.38 113.2C1018.31 114.133 1018.78 115.267 1018.78 116.6V144.2C1018.78 145.533 1018.31 146.667 1017.38 147.6C1016.45 148.533 1015.31 149 1013.98 149H912.181C910.848 149 909.715 148.533 908.781 147.6C907.848 146.667 907.381 145.533 907.381 144.2V7.4C907.381 6.06666 907.848 4.93332 908.781 4C909.715 3.06666 910.848 2.59999 912.181 2.59999H1013.98C1015.31 2.59999 1016.45 3.06666 1017.38 4C1018.31 4.93332 1018.78 6.06666 1018.78 7.4V34.6C1018.78 35.9333 1018.31 37.0667 1017.38 38C1016.45 38.9333 1015.31 39.4 1013.98 39.4H951.781C950.448 39.4 949.315 39.8667 948.381 40.8C947.448 41.7333 946.981 42.8667 946.981 44.2ZM1078.9 149H1049.1C1047.77 149 1046.64 148.533 1045.7 147.6C1044.77 146.667 1044.3 145.533 1044.3 144.2V7.4C1044.3 6.06666 1044.77 4.93332 1045.7 4C1046.64 3.06666 1047.77 2.59999 1049.1 2.59999H1111.3C1119.04 2.59999 1126.17 3.93333 1132.7 6.6C1139.24 9.13333 1144.77 12.7333 1149.3 17.4C1153.97 22.0667 1157.57 27.6 1160.1 34C1162.77 40.4 1164.1 47.4667 1164.1 55.2C1164.1 59.4667 1163.57 63.7333 1162.5 68C1161.57 72.1333 1160.17 76.0667 1158.3 79.8C1156.44 83.5333 1154.24 86.9333 1151.7 90C1149.17 92.9333 1146.3 95.4 1143.1 97.4C1142.04 98.2 1141.3 99.2 1140.9 100.4C1140.64 101.467 1140.9 102.533 1141.7 103.6C1146.77 110.267 1152.1 117.133 1157.7 124.2C1163.3 131.267 1168.3 137.733 1172.7 143.6C1173.5 144.667 1173.7 145.867 1173.3 147.2C1172.9 148.4 1172.04 149 1170.7 149H1133.5C1132.17 149 1130.7 148.667 1129.1 148C1127.64 147.2 1126.5 146.267 1125.7 145.2C1121.44 139.6 1117.17 133.933 1112.9 128.2C1108.77 122.467 1104.64 116.667 1100.5 110.8C1099.7 109.733 1098.57 108.867 1097.1 108.2C1095.64 107.4 1094.24 107 1092.9 107H1088.5C1087.17 107 1086.04 107.467 1085.1 108.4C1084.17 109.333 1083.7 110.467 1083.7 111.8V144.2C1083.7 145.533 1083.24 146.667 1082.3 147.6C1081.37 148.533 1080.24 149 1078.9 149ZM1088.5 70.2H1109.7C1111.3 70.2 1112.97 69.9333 1114.7 69.4C1116.44 68.7333 1118.04 67.8 1119.5 66.6C1120.97 65.2667 1122.17 63.6667 1123.1 61.8C1124.04 59.9333 1124.5 57.7333 1124.5 55.2C1124.5 53.8667 1124.24 52.3333 1123.7 50.6C1123.3 48.7333 1122.5 47 1121.3 45.4C1120.24 43.6667 1118.7 42.2667 1116.7 41.2C1114.84 40 1112.5 39.4 1109.7 39.4H1088.5C1087.17 39.4 1086.04 39.8667 1085.1 40.8C1084.17 41.7333 1083.7 42.8667 1083.7 44.2V65.4C1083.7 66.7333 1084.17 67.8667 1085.1 68.8C1086.04 69.7333 1087.17 70.2 1088.5 70.2ZM1204.65 98.8C1211.85 103.467 1218.98 107.133 1226.05 109.8C1233.12 112.467 1239.72 113.8 1245.85 113.8C1251.72 113.8 1256.18 113 1259.25 111.4C1262.32 109.667 1263.85 107.133 1263.85 103.8C1263.85 102.067 1263.18 100.733 1261.85 99.8C1260.52 98.7333 1258.72 97.8667 1256.45 97.2C1254.32 96.5333 1251.78 96 1248.85 95.6C1245.92 95.2 1242.92 94.6667 1239.85 94C1236.92 93.4667 1233.45 92.8667 1229.45 92.2C1225.58 91.4 1221.58 90.3333 1217.45 89C1213.32 87.5333 1209.18 85.7333 1205.05 83.6C1201.05 81.4667 1197.45 78.7333 1194.25 75.4C1191.05 72.0667 1188.45 68.1333 1186.45 63.6C1184.58 58.9333 1183.65 53.4667 1183.65 47.2C1183.65 38 1185.45 30.4 1189.05 24.4C1192.65 18.4 1197.18 13.6667 1202.65 10.2C1208.25 6.6 1214.45 4.13333 1221.25 2.8C1228.05 1.33333 1234.65 0.599991 1241.05 0.599991C1252.25 0.599991 1262.25 2.26666 1271.05 5.6C1279.98 8.8 1288.52 13.5333 1296.65 19.8C1297.72 20.7333 1298.32 21.8667 1298.45 23.2C1298.58 24.5333 1298.25 25.7333 1297.45 26.8L1281.85 49C1281.05 50.0667 1279.98 50.7333 1278.65 51C1277.32 51.2667 1276.12 51 1275.05 50.2C1268.25 45.9333 1261.92 42.9333 1256.05 41.2C1250.18 39.3333 1244.78 38.4 1239.85 38.4C1238.38 38.4 1236.65 38.4667 1234.65 38.6C1232.78 38.6 1230.98 38.8667 1229.25 39.4C1227.52 39.8 1226.05 40.5333 1224.85 41.6C1223.78 42.6667 1223.25 44.1333 1223.25 46C1223.25 47.8667 1224.65 49.5333 1227.45 51C1230.25 52.4667 1233.45 53.7333 1237.05 54.8C1240.65 55.8667 1244.12 56.7333 1247.45 57.4C1250.78 57.9333 1252.92 58.2667 1253.85 58.4C1258.65 59.3333 1263.92 60.7333 1269.65 62.6C1275.38 64.3333 1280.72 67 1285.65 70.6C1290.72 74.0667 1294.92 78.6667 1298.25 84.4C1301.72 90 1303.45 97.0667 1303.45 105.6C1303.45 113.6 1302.05 120.533 1299.25 126.4C1296.45 132.133 1292.52 136.867 1287.45 140.6C1282.52 144.333 1276.52 147.133 1269.45 149C1262.52 150.733 1254.78 151.6 1246.25 151.6C1239.32 151.6 1232.85 151 1226.85 149.8C1220.85 148.733 1215.25 147.2 1210.05 145.2C1204.85 143.2 1199.98 140.867 1195.45 138.2C1191.05 135.4 1186.98 132.467 1183.25 129.4C1182.18 128.6 1181.58 127.533 1181.45 126.2C1181.32 124.733 1181.65 123.467 1182.45 122.4L1197.85 100.2C1198.65 99.1333 1199.72 98.4667 1201.05 98.2C1202.38 97.9333 1203.58 98.1333 1204.65 98.8Z" fill="#0E29AA"/>
</svg>
