<svg width="1341" height="156" viewBox="0 0 1341 156" fill="none" xmlns="http://www.w3.org/2000/svg">
<path d="M23.9009 101.668C31.3093 106.47 38.6491 110.243 45.9203 112.987C53.1915 115.731 59.9825 117.103 66.2934 117.103C72.3298 117.103 76.9258 116.28 80.0812 114.633C83.2366 112.85 84.8144 110.243 84.8144 106.813C84.8144 105.029 84.1284 103.657 82.7565 102.697C81.3845 101.599 79.5324 100.707 77.2002 100.021C75.0051 99.3351 72.3984 98.7863 69.3802 98.3747C66.362 97.9631 63.2751 97.4142 60.1197 96.7282C57.1015 96.1794 53.5345 95.562 49.4187 94.876C45.4401 94.0528 41.3243 92.9551 37.0714 91.5831C32.8184 90.0739 28.5654 88.2216 24.3125 86.0264C20.1967 83.8311 16.4925 81.0185 13.1999 77.5884C9.90726 74.1583 7.232 70.1108 5.17412 65.4459C3.25342 60.6438 2.29307 55.0185 2.29307 48.5699C2.29307 39.1029 4.14517 31.2823 7.84937 25.1082C11.5536 18.934 16.2181 14.0633 21.843 10.4961C27.6051 6.79157 33.9845 4.25331 40.9814 2.88128C47.9782 1.37204 54.7692 0.617418 61.3544 0.617418C72.8786 0.617418 83.168 2.33246 92.2227 5.76254C101.415 9.05542 110.195 13.9261 118.564 20.3747C119.661 21.3351 120.279 22.5013 120.416 23.8734C120.553 25.2454 120.21 26.4802 119.387 27.5778L103.335 50.4222C102.512 51.5198 101.415 52.2058 100.043 52.4802C98.6708 52.7546 97.4361 52.4802 96.3385 51.657C89.3417 47.2665 82.8251 44.1794 76.7886 42.3958C70.7521 40.4749 65.1958 39.5145 60.1197 39.5145C58.6106 39.5145 56.8271 39.5831 54.7692 39.7203C52.8485 39.7203 50.9964 39.9947 49.2129 40.5435C47.4294 40.9551 45.9203 41.7098 44.6856 42.8074C43.588 43.905 43.0392 45.4142 43.0392 47.3351C43.0392 49.2559 44.4798 50.971 47.3608 52.4802C50.2418 53.9894 53.5345 55.2929 57.2387 56.3905C60.9429 57.4881 64.5099 58.3799 67.9397 59.066C71.3695 59.6148 73.5646 59.9578 74.5249 60.095C79.4638 61.0554 84.8829 62.496 90.7822 64.4169C96.6815 66.2005 102.169 68.9446 107.245 72.6491C112.459 76.2164 116.78 80.9499 120.21 86.8496C123.777 92.6121 125.561 99.8839 125.561 108.665C125.561 116.897 124.12 124.032 121.239 130.069C118.358 135.968 114.311 140.839 109.097 144.681C104.021 148.522 97.8476 151.404 90.5764 153.325C83.4424 155.108 75.4853 156 66.7049 156C59.5709 156 52.9171 155.383 46.7434 154.148C40.5698 153.05 34.8077 151.472 29.4572 149.414C24.1067 147.356 19.0992 144.955 14.4346 142.211C9.90726 139.33 5.72289 136.311 1.8815 133.156C0.783957 132.332 0.166591 131.235 0.0293984 129.863C-0.107794 128.354 0.235187 127.05 1.05834 125.953L16.9041 103.108C17.7272 102.011 18.8248 101.325 20.1967 101.05C21.5686 100.776 22.8034 100.982 23.9009 101.668Z" fill="#0C25A1"/>
<path d="M187.233 45.4828V54.1266C187.233 55.4987 187.713 56.6649 188.673 57.6253C189.634 58.5857 190.8 59.066 192.172 59.066H247.94C249.312 59.066 250.479 59.5462 251.439 60.5066C252.399 61.467 252.879 62.6332 252.879 64.0053V92.4063C252.879 93.7784 252.399 94.9446 251.439 95.905C250.479 96.8654 249.312 97.3456 247.94 97.3456H192.172C190.8 97.3456 189.634 97.8259 188.673 98.7863C187.713 99.7467 187.233 100.913 187.233 102.285V110.106C187.233 111.478 187.713 112.644 188.673 113.604C189.634 114.565 190.8 115.045 192.172 115.045H256.172C257.544 115.045 258.71 115.525 259.67 116.485C260.631 117.446 261.111 118.612 261.111 119.984V148.385C261.111 149.757 260.631 150.923 259.67 151.884C258.71 152.844 257.544 153.325 256.172 153.325H151.426C150.054 153.325 148.888 152.844 147.927 151.884C146.967 150.923 146.487 149.757 146.487 148.385V7.61479C146.487 6.24275 146.967 5.07652 147.927 4.1161C148.888 3.15568 150.054 2.67546 151.426 2.67546H256.172C257.544 2.67546 258.71 3.15568 259.67 4.1161C260.631 5.07652 261.111 6.24275 261.111 7.61479V35.6042C261.111 36.9763 260.631 38.1425 259.67 39.1029C258.71 40.0633 257.544 40.5435 256.172 40.5435H192.172C190.8 40.5435 189.634 41.0237 188.673 41.9842C187.713 42.9446 187.233 44.1108 187.233 45.4828Z" fill="#0C25A1"/>
<path d="M330.613 7.40897C331.162 6.17414 332.053 5.14512 333.288 4.3219C334.66 3.36149 336.101 2.88128 337.61 2.88128H366.42C367.792 2.88128 369.095 3.36149 370.33 4.3219C371.702 5.14512 372.662 6.17414 373.211 7.40897L433.301 147.356C433.85 148.591 433.713 149.894 432.89 151.266C432.204 152.639 430.763 153.325 428.568 153.325H393.378C391.869 153.325 390.429 152.913 389.057 152.09C387.822 151.129 386.862 150.032 386.176 148.797L380.62 136.449C379.934 135.214 378.905 134.185 377.533 133.361C376.298 132.401 374.995 131.921 373.623 131.921H330.201C328.692 131.921 327.252 132.401 325.88 133.361C324.645 134.185 323.753 135.214 323.204 136.449L317.442 148.797C316.894 150.032 315.933 151.129 314.561 152.09C313.327 152.913 312.023 153.325 310.651 153.325H275.256C274.57 153.325 273.884 153.187 273.198 152.913C272.375 152.639 271.757 152.227 271.346 151.678C270.797 151.129 270.454 150.443 270.317 149.62C270.18 148.797 270.385 147.836 270.934 146.739L330.613 7.40897ZM342.754 96.934H361.07C362.442 96.934 363.402 96.5224 363.951 95.6992C364.637 94.7388 364.637 93.6412 363.951 92.4063C362.579 88.9762 360.932 84.9974 359.012 80.4697C357.091 75.8048 355.308 71.4829 353.661 67.504C353.112 66.2691 352.495 65.6517 351.809 65.6517C351.123 65.6517 350.506 66.2691 349.957 67.504L339.668 92.4063C339.119 93.6412 339.119 94.7388 339.668 95.6992C340.216 96.5224 341.245 96.934 342.754 96.934Z" fill="#0C25A1"/>
<path d="M511.492 78C511.492 67.2982 513.549 57.2137 517.665 47.7467C521.781 38.2797 527.337 30.0475 534.334 23.0501C541.331 15.9156 549.562 10.2902 559.029 6.17415C568.495 2.05805 578.579 0 589.28 0C599.981 0 610.064 2.05805 619.531 6.17415C628.997 10.2902 637.228 15.9156 644.225 23.0501C651.359 30.0475 656.984 38.2797 661.1 47.7467C665.216 57.2137 667.274 67.2982 667.274 78C667.274 88.7018 665.216 98.7863 661.1 108.253C656.984 117.72 651.359 126.021 644.225 133.156C637.228 140.153 628.997 145.71 619.531 149.826C610.064 153.942 599.981 156 589.28 156C578.579 156 568.495 153.942 559.029 149.826C549.562 145.71 541.331 140.153 534.334 133.156C527.337 126.021 521.781 117.72 517.665 108.253C513.549 98.7863 511.492 88.7018 511.492 78ZM552.238 78C552.238 83.2137 553.198 88.153 555.119 92.8179C557.039 97.4828 559.646 101.599 562.939 105.166C566.369 108.734 570.347 111.615 574.874 113.81C579.402 115.868 584.204 116.897 589.28 116.897C594.356 116.897 599.157 115.868 603.685 113.81C608.212 111.615 612.191 108.734 615.621 105.166C619.05 101.599 621.726 97.4828 623.646 92.8179C625.567 88.153 626.527 83.2137 626.527 78C626.527 72.9235 625.567 68.0528 623.646 63.3879C621.726 58.5858 619.05 54.4697 615.621 51.0396C612.191 47.4723 608.212 44.6596 603.685 42.6016C599.157 40.4063 594.356 39.3087 589.28 39.3087C584.204 39.3087 579.402 40.4063 574.874 42.6016C570.347 44.6596 566.369 47.4723 562.939 51.0396C559.646 54.4697 557.039 58.5858 555.119 63.3879C553.198 68.0528 552.238 72.9235 552.238 78Z" fill="#0C25A1"/>
<path d="M784.859 40.5435H756.049C754.677 40.5435 753.511 41.0237 752.55 41.9842C751.59 42.9446 751.11 44.1108 751.11 45.4828V148.385C751.11 149.757 750.63 150.923 749.669 151.884C748.846 152.844 747.68 153.325 746.171 153.325H715.303C713.931 153.325 712.765 152.844 711.804 151.884C710.844 150.923 710.364 149.757 710.364 148.385V45.4828C710.364 44.1108 709.884 42.9446 708.923 41.9842C708.1 41.0237 706.934 40.5435 705.425 40.5435H676.203C674.831 40.5435 673.665 40.0633 672.704 39.1029C671.744 38.1425 671.264 36.9763 671.264 35.6042V7.61479C671.264 6.24275 671.744 5.07652 672.704 4.1161C673.665 3.15568 674.831 2.67546 676.203 2.67546H784.859C786.368 2.67546 787.535 3.15568 788.358 4.1161C789.318 5.07652 789.798 6.24275 789.798 7.61479V35.6042C789.798 36.9763 789.318 38.1425 788.358 39.1029C787.535 40.0633 786.368 40.5435 784.859 40.5435Z" fill="#0C25A1"/>
<path d="M912.874 40.5435H884.064C882.692 40.5435 881.526 41.0237 880.566 41.9842C879.605 42.9446 879.125 44.1108 879.125 45.4828V148.385C879.125 149.757 878.645 150.923 877.684 151.884C876.861 152.844 875.695 153.325 874.186 153.325H843.318C841.946 153.325 840.78 152.844 839.819 151.884C838.859 150.923 838.379 149.757 838.379 148.385V45.4828C838.379 44.1108 837.899 42.9446 836.938 41.9842C836.115 41.0237 834.949 40.5435 833.44 40.5435H804.218C802.846 40.5435 801.68 40.0633 800.719 39.1029C799.759 38.1425 799.279 36.9763 799.279 35.6042V7.61479C799.279 6.24275 799.759 5.07652 800.719 4.1161C801.68 3.15568 802.846 2.67546 804.218 2.67546H912.874C914.383 2.67546 915.55 3.15568 916.373 4.1161C917.333 5.07652 917.813 6.24275 917.813 7.61479V35.6042C917.813 36.9763 917.333 38.1425 916.373 39.1029C915.55 40.0633 914.383 40.5435 912.874 40.5435Z" fill="#0C25A1"/>
<path d="M974.214 45.4828V54.1266C974.214 55.4987 974.694 56.6649 975.654 57.6253C976.615 58.5857 977.781 59.066 979.153 59.066H1034.92C1036.29 59.066 1037.46 59.5462 1038.42 60.5066C1039.38 61.467 1039.86 62.6332 1039.86 64.0053V92.4063C1039.86 93.7784 1039.38 94.9446 1038.42 95.905C1037.46 96.8654 1036.29 97.3456 1034.92 97.3456H979.153C977.781 97.3456 976.615 97.8259 975.654 98.7863C974.694 99.7467 974.214 100.913 974.214 102.285V110.106C974.214 111.478 974.694 112.644 975.654 113.604C976.615 114.565 977.781 115.045 979.153 115.045H1043.15C1044.52 115.045 1045.69 115.525 1046.65 116.485C1047.61 117.446 1048.09 118.612 1048.09 119.984V148.385C1048.09 149.757 1047.61 150.923 1046.65 151.884C1045.69 152.844 1044.52 153.325 1043.15 153.325H938.407C937.035 153.325 935.869 152.844 934.908 151.884C933.948 150.923 933.468 149.757 933.468 148.385V7.61479C933.468 6.24275 933.948 5.07652 934.908 4.1161C935.869 3.15568 937.035 2.67546 938.407 2.67546H1043.15C1044.52 2.67546 1045.69 3.15568 1046.65 4.1161C1047.61 5.07652 1048.09 6.24275 1048.09 7.61479V35.6042C1048.09 36.9763 1047.61 38.1425 1046.65 39.1029C1045.69 40.0633 1044.52 40.5435 1043.15 40.5435H979.153C977.781 40.5435 976.615 41.0237 975.654 41.9842C974.694 42.9446 974.214 44.1108 974.214 45.4828Z" fill="#0C25A1"/>
<path d="M1109.96 153.325H1079.29C1077.92 153.325 1076.76 152.844 1075.79 151.884C1074.83 150.923 1074.35 149.757 1074.35 148.385V7.61479C1074.35 6.24275 1074.83 5.07652 1075.79 4.1161C1076.76 3.15568 1077.92 2.67546 1079.29 2.67546H1143.29C1151.25 2.67546 1158.59 4.0475 1165.31 6.79157C1172.04 9.39843 1177.73 13.1029 1182.39 17.905C1187.2 22.7071 1190.9 28.4011 1193.51 34.9868C1196.25 41.5726 1197.62 48.8443 1197.62 56.8021C1197.62 61.1926 1197.07 65.5831 1195.98 69.9736C1195.02 74.2269 1193.57 78.2744 1191.65 82.1161C1189.73 85.9578 1187.47 89.4565 1184.86 92.6121C1182.26 95.6306 1179.31 98.1689 1176.01 100.227C1174.92 101.05 1174.16 102.079 1173.75 103.314C1173.48 104.412 1173.75 105.509 1174.57 106.607C1179.79 113.467 1185.27 120.533 1191.04 127.805C1196.8 135.077 1201.94 141.731 1206.47 147.768C1207.29 148.865 1207.5 150.1 1207.09 151.472C1206.68 152.707 1205.78 153.325 1204.41 153.325H1166.14C1164.76 153.325 1163.25 152.982 1161.61 152.296C1160.1 151.472 1158.93 150.512 1158.11 149.414C1153.72 143.652 1149.33 137.821 1144.94 131.921C1140.69 126.021 1136.43 120.053 1132.18 114.016C1131.36 112.918 1130.19 112.026 1128.68 111.34C1127.17 110.517 1125.73 110.106 1124.36 110.106H1119.83C1118.46 110.106 1117.3 110.586 1116.34 111.546C1115.37 112.507 1114.89 113.673 1114.89 115.045V148.385C1114.89 149.757 1114.41 150.923 1113.45 151.884C1112.49 152.844 1111.33 153.325 1109.96 153.325ZM1119.83 72.2375H1141.65C1143.29 72.2375 1145.01 71.9631 1146.79 71.4142C1148.58 70.7282 1150.22 69.7678 1151.73 68.533C1153.24 67.1609 1154.47 65.5145 1155.43 63.5937C1156.4 61.6728 1156.88 59.409 1156.88 56.8021C1156.88 55.4301 1156.6 53.8522 1156.05 52.0686C1155.64 50.1478 1154.82 48.3641 1153.58 46.7177C1152.49 44.934 1150.91 43.4934 1148.85 42.3958C1146.93 41.1609 1144.53 40.5435 1141.65 40.5435H1119.83C1118.46 40.5435 1117.3 41.0237 1116.34 41.9842C1115.37 42.9446 1114.89 44.1108 1114.89 45.4828V67.2982C1114.89 68.6702 1115.37 69.8364 1116.34 70.7968C1117.3 71.7573 1118.46 72.2375 1119.83 72.2375Z" fill="#0C25A1"/>
<path d="M1239.34 101.668C1246.75 106.47 1254.09 110.243 1261.36 112.987C1268.63 115.731 1275.42 117.103 1281.73 117.103C1287.77 117.103 1292.37 116.28 1295.52 114.633C1298.68 112.85 1300.25 110.243 1300.25 106.813C1300.25 105.029 1299.57 103.657 1298.2 102.697C1296.82 101.599 1294.97 100.707 1292.64 100.021C1290.44 99.3351 1287.84 98.7863 1284.82 98.3747C1281.8 97.9631 1278.71 97.4142 1275.56 96.7282C1272.54 96.1794 1268.97 95.562 1264.86 94.876C1260.88 94.0528 1256.76 92.9551 1252.51 91.5831C1248.26 90.0739 1244.01 88.2216 1239.75 86.0264C1235.64 83.8311 1231.93 81.0185 1228.64 77.5884C1225.35 74.1583 1222.67 70.1108 1220.61 65.4459C1218.69 60.6438 1217.73 55.0185 1217.73 48.5699C1217.73 39.1029 1219.58 31.2823 1223.29 25.1082C1226.99 18.934 1231.66 14.0633 1237.28 10.4961C1243.04 6.79157 1249.42 4.25331 1256.42 2.88128C1263.42 1.37204 1270.21 0.617418 1276.79 0.617418C1288.32 0.617418 1298.61 2.33246 1307.66 5.76254C1316.85 9.05542 1325.63 13.9261 1334 20.3747C1335.1 21.3351 1335.72 22.5013 1335.86 23.8734C1335.99 25.2454 1335.65 26.4802 1334.83 27.5778L1318.77 50.4222C1317.95 51.5198 1316.85 52.2058 1315.48 52.4802C1314.11 52.7546 1312.88 52.4802 1311.78 51.657C1304.78 47.2665 1298.26 44.1794 1292.23 42.3958C1286.19 40.4749 1280.64 39.5145 1275.56 39.5145C1274.05 39.5145 1272.27 39.5831 1270.21 39.7203C1268.29 39.7203 1266.44 39.9947 1264.65 40.5435C1262.87 40.9551 1261.36 41.7098 1260.13 42.8074C1259.03 43.905 1258.48 45.4142 1258.48 47.3351C1258.48 49.2559 1259.92 50.971 1262.8 52.4802C1265.68 53.9894 1268.97 55.2929 1272.68 56.3905C1276.38 57.4881 1279.95 58.3799 1283.38 59.066C1286.81 59.6148 1289 59.9578 1289.96 60.095C1294.9 61.0554 1300.32 62.496 1306.22 64.4169C1312.12 66.2005 1317.61 68.9446 1322.68 72.6491C1327.9 76.2164 1332.22 80.9499 1335.65 86.8496C1339.22 92.6121 1341 99.8839 1341 108.665C1341 116.897 1339.56 124.032 1336.68 130.069C1333.8 135.968 1329.75 140.839 1324.54 144.681C1319.46 148.522 1313.29 151.404 1306.02 153.325C1298.88 155.108 1290.92 156 1282.14 156C1275.01 156 1268.36 155.383 1262.18 154.148C1256.01 153.05 1250.25 151.472 1244.9 149.414C1239.55 147.356 1234.54 144.955 1229.87 142.211C1225.35 139.33 1221.16 136.311 1217.32 133.156C1216.22 132.332 1215.61 131.235 1215.47 129.863C1215.33 128.354 1215.67 127.05 1216.5 125.953L1232.34 103.108C1233.17 102.011 1234.26 101.325 1235.64 101.05C1237.01 100.776 1238.24 100.982 1239.34 101.668Z" fill="#0C25A1"/>
</svg>
